{
	"asset":{
		"generator":"Khronos glTF Blender I/O v3.6.6",
		"version":"2.0"
	},
	"extensionsUsed":[
		"KHR_materials_clearcoat"
	],
	"scene":0,
	"scenes":[
		{
			"name":"Scene",
			"nodes":[
				0,
				1,
				2,
				3,
				4
			]
		}
	],
	"nodes":[
		{
			"mesh":0,
			"name":"Cube",
			"scale":[
				0.582655131816864,
				0.582655131816864,
				0.582655131816864
			],
			"translation":[
				0.035244978964328766,
				-0.07955068349838257,
				0.09703142940998077
			]
		},
		{
			"mesh":1,
			"name":"Cylinder",
			"scale":[
				-0.17958372831344604,
				-0.17958372831344604,
				-0.17958372831344604
			],
			"translation":[
				0.2739655673503876,
				-0.7957124710083008,
				0.09703134000301361
			]
		},
		{
			"mesh":2,
			"name":"Cube.001",
			"scale":[
				0.5005308985710144,
				0.28224101662635803,
				0.28224101662635803
			],
			"translation":[
				0.04255196079611778,
				0.49039366841316223,
				0.8035873174667358
			]
		},
		{
			"mesh":3,
			"name":"Cube.002",
			"scale":[
				0.582655131816864,
				0.582655131816864,
				0.582655131816864
			],
			"translation":[
				0.035244978964328766,
				-0.07955068349838257,
				0.0678035169839859
			]
		},
		{
			"mesh":4,
			"name":"Cylinder.001",
			"scale":[
				0.340829074382782,
				0.340829074382782,
				0.340829074382782
			],
			"translation":[
				0.035244978964328766,
				1.3591954708099365,
				0.09703142940998077
			]
		}
	],
	"materials":[
		{
			"doubleSided":true,
			"name":"BaseBLack",
			"pbrMetallicRoughness":{
				"baseColorFactor":[
					0,
					0,
					0,
					1
				],
				"metallicFactor":0,
				"roughnessFactor":0.5
			}
		},
		{
			"doubleSided":true,
			"name":"Material.002",
			"pbrMetallicRoughness":{
				"baseColorFactor":[
					0.10444653034210205,
					0.08617846667766571,
					0.1597248762845993,
					1
				],
				"metallicFactor":0,
				"roughnessFactor":0.5
			}
		},
		{
			"doubleSided":true,
			"extensions":{
				"KHR_materials_clearcoat":{
					"clearcoatFactor":0.4363636374473572,
					"clearcoatRoughnessFactor":0.1709090918302536
				}
			},
			"name":"Material",
			"pbrMetallicRoughness":{
				"baseColorFactor":[
					0.009289578534662724,
					0.004714083392173052,
					0.016541248187422752,
					1
				],
				"roughnessFactor":0.7636363506317139
			}
		}
	],
	"meshes":[
		{
			"name":"Cube",
			"primitives":[
				{
					"attributes":{
						"POSITION":0,
						"TEXCOORD_0":1,
						"NORMAL":2
					},
					"indices":3,
					"material":0
				}
			]
		},
		{
			"name":"Cylinder.001",
			"primitives":[
				{
					"attributes":{
						"POSITION":4,
						"TEXCOORD_0":5,
						"NORMAL":6
					},
					"indices":7,
					"material":0
				}
			]
		},
		{
			"name":"Cube.001",
			"primitives":[
				{
					"attributes":{
						"POSITION":8,
						"TEXCOORD_0":9,
						"NORMAL":10
					},
					"indices":11,
					"material":1
				}
			]
		},
		{
			"name":"Cube.002",
			"primitives":[
				{
					"attributes":{
						"POSITION":12,
						"TEXCOORD_0":13,
						"NORMAL":14
					},
					"indices":15,
					"material":0
				}
			]
		},
		{
			"name":"Cylinder.002",
			"primitives":[
				{
					"attributes":{
						"POSITION":16,
						"TEXCOORD_0":17,
						"NORMAL":18
					},
					"indices":19,
					"material":2
				}
			]
		}
	],
	"accessors":[
		{
			"bufferView":0,
			"componentType":5126,
			"count":19,
			"max":[
				1,
				2.2365171909332275,
				1
			],
			"min":[
				-1,
				-1,
				-1
			],
			"type":"VEC3"
		},
		{
			"bufferView":1,
			"componentType":5126,
			"count":19,
			"type":"VEC2"
		},
		{
			"bufferView":2,
			"componentType":5126,
			"count":19,
			"type":"VEC3"
		},
		{
			"bufferView":3,
			"componentType":5123,
			"count":60,
			"type":"SCALAR"
		},
		{
			"bufferView":4,
			"componentType":5126,
			"count":198,
			"max":[
				1.2545937299728394,
				0.599421501159668,
				1.2545937299728394
			],
			"min":[
				-1.2545937299728394,
				-2.180209159851074,
				-1.2545937299728394
			],
			"type":"VEC3"
		},
		{
			"bufferView":5,
			"componentType":5126,
			"count":198,
			"type":"VEC2"
		},
		{
			"bufferView":6,
			"componentType":5126,
			"count":198,
			"type":"VEC3"
		},
		{
			"bufferView":7,
			"componentType":5123,
			"count":768,
			"type":"SCALAR"
		},
		{
			"bufferView":8,
			"componentType":5126,
			"count":20,
			"max":[
				0.841073751449585,
				0.8735402822494507,
				-0.4178604483604431
			],
			"min":[
				-0.8961987495422363,
				-0.8547764420509338,
				-1.4483071565628052
			],
			"type":"VEC3"
		},
		{
			"bufferView":9,
			"componentType":5126,
			"count":20,
			"type":"VEC2"
		},
		{
			"bufferView":10,
			"componentType":5126,
			"count":20,
			"type":"VEC3"
		},
		{
			"bufferView":11,
			"componentType":5123,
			"count":48,
			"type":"SCALAR"
		},
		{
			"bufferView":12,
			"componentType":5126,
			"count":71,
			"max":[
				0.9125571846961975,
				1.3013226985931396,
				-0.8371946811676025
			],
			"min":[
				-0.912557065486908,
				-0.5237913727760315,
				-1.4908053874969482
			],
			"type":"VEC3"
		},
		{
			"bufferView":13,
			"componentType":5126,
			"count":71,
			"type":"VEC2"
		},
		{
			"bufferView":14,
			"componentType":5126,
			"count":71,
			"type":"VEC3"
		},
		{
			"bufferView":15,
			"componentType":5123,
			"count":288,
			"type":"SCALAR"
		},
		{
			"bufferView":16,
			"componentType":5126,
			"count":428,
			"max":[
				1.5313869714736938,
				1.0247879028320312,
				1.5315191745758057
			],
			"min":[
				-1.5911840200424194,
				-1.0312365293502808,
				-1.559327244758606
			],
			"type":"VEC3"
		},
		{
			"bufferView":17,
			"componentType":5126,
			"count":428,
			"type":"VEC2"
		},
		{
			"bufferView":18,
			"componentType":5126,
			"count":428,
			"type":"VEC3"
		},
		{
			"bufferView":19,
			"componentType":5123,
			"count":2199,
			"type":"SCALAR"
		}
	],
	"bufferViews":[
		{
			"buffer":0,
			"byteLength":228,
			"byteOffset":0,
			"target":34962
		},
		{
			"buffer":0,
			"byteLength":152,
			"byteOffset":228,
			"target":34962
		},
		{
			"buffer":0,
			"byteLength":228,
			"byteOffset":380,
			"target":34962
		},
		{
			"buffer":0,
			"byteLength":120,
			"byteOffset":608,
			"target":34963
		},
		{
			"buffer":0,
			"byteLength":2376,
			"byteOffset":728,
			"target":34962
		},
		{
			"buffer":0,
			"byteLength":1584,
			"byteOffset":3104,
			"target":34962
		},
		{
			"buffer":0,
			"byteLength":2376,
			"byteOffset":4688,
			"target":34962
		},
		{
			"buffer":0,
			"byteLength":1536,
			"byteOffset":7064,
			"target":34963
		},
		{
			"buffer":0,
			"byteLength":240,
			"byteOffset":8600,
			"target":34962
		},
		{
			"buffer":0,
			"byteLength":160,
			"byteOffset":8840,
			"target":34962
		},
		{
			"buffer":0,
			"byteLength":240,
			"byteOffset":9000,
			"target":34962
		},
		{
			"buffer":0,
			"byteLength":96,
			"byteOffset":9240,
			"target":34963
		},
		{
			"buffer":0,
			"byteLength":852,
			"byteOffset":9336,
			"target":34962
		},
		{
			"buffer":0,
			"byteLength":568,
			"byteOffset":10188,
			"target":34962
		},
		{
			"buffer":0,
			"byteLength":852,
			"byteOffset":10756,
			"target":34962
		},
		{
			"buffer":0,
			"byteLength":576,
			"byteOffset":11608,
			"target":34963
		},
		{
			"buffer":0,
			"byteLength":5136,
			"byteOffset":12184,
			"target":34962
		},
		{
			"buffer":0,
			"byteLength":3424,
			"byteOffset":17320,
			"target":34962
		},
		{
			"buffer":0,
			"byteLength":5136,
			"byteOffset":20744,
			"target":34962
		},
		{
			"buffer":0,
			"byteLength":4398,
			"byteOffset":25880,
			"target":34963
		}
	],
	"buffers":[
		{
			"byteLength":30280,
			"uri":"among.bin"
		}
	]
}
